<?xml version="1.0" encoding="UTF-8" standalone="no"?> <svg xmlns="http://www.w3.org/2000/svg" viewBox="0 0 24 24"><title>shopping cart download</title><g id="Layer_2" data-name="Layer 2"><path d="M17.93,22a2.52,2.52,0,1,1,2.52-2.52A2.52,2.52,0,0,1,17.93,22Zm0-3a.52.52,0,1,0,.52.52A.52.52,0,0,0,17.93,19Z"/><path d="M10.93,22a2.52,2.52,0,1,1,2.52-2.52A2.52,2.52,0,0,1,10.93,22Zm0-3a.52.52,0,1,0,.52.52A.52.52,0,0,0,10.93,19Z"/><path d="M21.37,6.81a2.2,2.2,0,0,0-1.65-.75H15.47V3a1.5,1.5,0,0,0-3,0V6.06h-4a2.18,2.18,0,0,0-.62.1L7.31,2.83a1,1,0,0,0-1-.83H3.08a1,1,0,0,0,0,2h2.4s.9,5.14.93,5.2L7,14A2.2,2.2,0,0,0,9.2,15.94H19A2.2,2.2,0,0,0,21.21,14l.7-5.48A2.2,2.2,0,0,0,21.37,6.81Zm-7.9,4V3a.5.5,0,0,1,1,0v7.8l1.18-1.16a.5.5,0,0,1,.71,0h0a.5.5,0,0,1,0,.71l-2,2a.52.52,0,0,1-.71,0l-2-2a.5.5,0,1,1,.71-.7Z"/></g></svg>